#tb 0: 1/25
0,          0,          0,        1,   152064, 0x6e4f89ef
0,          1,          1,        1,   152064, 0x544f5b4e
0,          2,          2,        1,   152064, 0x36b5ed1e
0,          3,          3,        1,   152064, 0xc74b4b2d
0,          4,          4,        1,   152064, 0xa9d42dcd
0,          5,          5,        1,   152064, 0x21fd543b
0,          6,          6,        1,   152064, 0x884ba0ca
0,          7,          7,        1,   152064, 0x59fd8fcd
0,          8,          8,        1,   152064, 0xf062f4f2
0,          9,          9,        1,   152064, 0xb2811c67
0,         10,         10,        1,   152064, 0xa7128baf
0,         11,         11,        1,   152064, 0xdf8ef615
0,         12,         12,        1,   152064, 0x750bfaa9
0,         13,         13,        1,   152064, 0xd29182cb
0,         14,         14,        1,   152064, 0xa12823cd
0,         15,         15,        1,   152064, 0x9b542058
0,         16,         16,        1,   152064, 0xaf56df26
0,         17,         17,        1,   152064, 0xadd39226
0,         18,         18,        1,   152064, 0xc8e688cd
0,         19,         19,        1,   152064, 0xa3a218a5
0,         20,         20,        1,   152064, 0x78348421
0,         21,         21,        1,   152064, 0xe691e3be
0,         22,         22,        1,   152064, 0x3443459b
0,         23,         23,        1,   152064, 0x260da010
0,         24,         24,        1,   152064, 0x900fc768
0,         25,         25,        1,   152064, 0x97fa737c
0,         26,         26,        1,   152064, 0x8dc4cfd1
0,         27,         27,        1,   152064, 0x8546eb54
0,         28,         28,        1,   152064, 0xb8857535
0,         29,         29,        1,   152064, 0x2e4451f0
0,         30,         30,        1,   152064, 0x15bdc202
0,         31,         31,        1,   152064, 0xb600eae4
0,         32,         32,        1,   152064, 0x6317b2f5
0,         33,         33,        1,   152064, 0x6d0a1d38
0,         34,         34,        1,   152064, 0xe4a6a074
0,         35,         35,        1,   152064, 0x1cbc06bc
0,         36,         36,        1,   152064, 0x3babb548
0,         37,         37,        1,   152064, 0x4808e8aa
0,         38,         38,        1,   152064, 0x774474f7
0,         39,         39,        1,   152064, 0xb72a7b19
0,         40,         40,        1,   152064, 0xc87c954a
0,         41,         41,        1,   152064, 0x77c20615
0,         42,         42,        1,   152064, 0x6a001f04
0,         43,         43,        1,   152064, 0x439ce265
0,         44,         44,        1,   152064, 0x9b985d95
0,         45,         45,        1,   152064, 0x6b8b6e19
0,         46,         46,        1,   152064, 0xea50e99f
0,         47,         47,        1,   152064, 0xdfec6f78
0,         48,         48,        1,   152064, 0x8309a892
0,         49,         49,        1,   152064, 0x8407efbd
